# xmcd
# Copyright (C) 1995-1998 Ti Kan
#
# Track frame offsets:
#       182
#       35140
#       62535
#       75557
#       105295
#       143277
#       161675
#       174655
#       204217
#       249442
#
# Disc length: 4016 seconds
#
# Revision: 0
# Processed by: cddbd v1.5.2PL0 Copyright (c) Steve Scherf et al.
# Submitted via: CD-Import v1.0
#
DISCID=730fae0a
DTITLE=Astor Piazzolla - L'amour  Du Tango, L'amour D'une Vie Cd1 
DYEAR=1900
DGENRE=
TTITLE0=Adiós Nonino
TTITLE1=Milonga Del Angel
TTITLE2=Muerte Del Angel
TTITLE3=Verano Porteño
TTITLE4=Mumuki
TTITLE5=Libertango
TTITLE6=Tres Minutos Con La Realidad
TTITLE7=Camorra
TTITLE8=Luna
TTITLE9=Tango Ballet
EXTD=
EXTT0=
EXTT1=
EXTT2=
EXTT3=
EXTT4=
EXTT5=
EXTT6=
EXTT7=
EXTT8=
EXTT9=
PLAYORDER=
